<?xml version="1.0" encoding="UTF-8"?>
<svg xmlns="http://www.w3.org/2000/svg" xmlns:xlink="http://www.w3.org/1999/xlink" viewBox="0 0 781 318.37">
  <defs>
    <style>
      .cls-1 {
        fill: url(#linear-gradient-3);
      }

      .cls-1, .cls-2, .cls-3, .cls-4, .cls-5, .cls-6, .cls-7, .cls-8 {
        mix-blend-mode: multiply;
      }

      .cls-2 {
        fill: url(#linear-gradient-8);
      }

      .cls-2, .cls-4, .cls-6, .cls-7 {
        opacity: .7;
      }

      .cls-9 {
        filter: url(#luminosity-noclip-7);
      }

      .cls-3 {
        fill: url(#linear-gradient);
      }

      .cls-10 {
        filter: url(#luminosity-noclip-5);
      }

      .cls-11 {
        mask: url(#mask-2);
      }

      .cls-12 {
        isolation: isolate;
      }

      .cls-13 {
        mask: url(#mask-3);
      }

      .cls-4 {
        fill: url(#linear-gradient-2);
      }

      .cls-14 {
        fill: url(#linear-gradient-11);
      }

      .cls-15 {
        fill: url(#linear-gradient-10);
      }

      .cls-5 {
        fill: url(#linear-gradient-5);
      }

      .cls-16 {
        mask: url(#mask-5);
      }

      .cls-6 {
        fill: url(#linear-gradient-6);
      }

      .cls-17 {
        fill: #5865f2;
      }

      .cls-18 {
        mask: url(#mask-4);
      }

      .cls-19 {
        mask: url(#mask-6);
      }

      .cls-7 {
        fill: url(#linear-gradient-4);
      }

      .cls-20 {
        fill: url(#linear-gradient-9);
      }

      .cls-21 {
        filter: url(#luminosity-noclip);
      }

      .cls-22 {
        mask: url(#mask-1);
      }

      .cls-23 {
        mask: url(#mask);
      }

      .cls-8 {
        fill: url(#linear-gradient-7);
      }

      .cls-24 {
        mask: url(#mask-7);
      }

      .cls-25 {
        filter: url(#luminosity-noclip-3);
      }

      .cls-26 {
        fill: url(#linear-gradient-12);
      }

      .cls-27 {
        fill: url(#linear-gradient-13);
      }
    </style>
    <filter id="luminosity-noclip" x="127.03" y="56.88" width="63.76" height="31.1" color-interpolation-filters="sRGB" filterUnits="userSpaceOnUse">
      <feFlood flood-color="#fff" result="bg"/>
      <feBlend in="SourceGraphic" in2="bg"/>
    </filter>
    <filter id="luminosity-noclip-2" x="127.03" y="-8351.18" width="63.76" height="32766" color-interpolation-filters="sRGB" filterUnits="userSpaceOnUse">
      <feFlood flood-color="#fff" result="bg"/>
      <feBlend in="SourceGraphic" in2="bg"/>
    </filter>
    <mask id="mask-1" x="127.03" y="-8351.18" width="63.76" height="32766" maskUnits="userSpaceOnUse"/>
    <linearGradient id="linear-gradient" x1="140.65" y1="137.39" x2="140.65" y2="106.29" gradientTransform="translate(18.25 -49.42)" gradientUnits="userSpaceOnUse">
      <stop offset="0" stop-color="#000"/>
      <stop offset=".23" stop-color="#020202"/>
      <stop offset=".36" stop-color="#0a0a0a"/>
      <stop offset=".48" stop-color="#191919"/>
      <stop offset=".58" stop-color="#2d2d2d"/>
      <stop offset=".67" stop-color="#474747"/>
      <stop offset=".75" stop-color="#676767"/>
      <stop offset=".83" stop-color="#8e8e8e"/>
      <stop offset=".91" stop-color="#bababa"/>
      <stop offset=".98" stop-color="#ebebeb"/>
      <stop offset="1" stop-color="#fff"/>
    </linearGradient>
    <mask id="mask" x="127.03" y="56.88" width="63.76" height="31.1" maskUnits="userSpaceOnUse">
      <g class="cls-21">
        <g class="cls-22">
          <path class="cls-3" d="m127.03,87.97c21.21-1.02,42.42-1.91,63.66-2.68.03-9.47.07-18.94.1-28.42-21.23.51-42.45,1.11-63.66,1.79-.03,9.77-.07,19.54-.1,29.31Z"/>
        </g>
      </g>
    </mask>
    <linearGradient id="linear-gradient-2" x1="140.65" y1="137.39" x2="140.65" y2="106.29" gradientTransform="translate(18.25 -49.42)" gradientUnits="userSpaceOnUse">
      <stop offset="0" stop-color="#5865f2" stop-opacity="0"/>
      <stop offset=".15" stop-color="#5360ee" stop-opacity=".12"/>
      <stop offset=".47" stop-color="#4855e7" stop-opacity=".43"/>
      <stop offset=".94" stop-color="#3644da" stop-opacity=".93"/>
      <stop offset="1" stop-color="#3442d9"/>
    </linearGradient>
    <filter id="luminosity-noclip-3" x="63.53" y=".05" width="38.97" height="60.9" color-interpolation-filters="sRGB" filterUnits="userSpaceOnUse">
      <feFlood flood-color="#fff" result="bg"/>
      <feBlend in="SourceGraphic" in2="bg"/>
    </filter>
    <filter id="luminosity-noclip-4" x="63.53" y="-8351.18" width="38.97" height="32766" color-interpolation-filters="sRGB" filterUnits="userSpaceOnUse">
      <feFlood flood-color="#fff" result="bg"/>
      <feBlend in="SourceGraphic" in2="bg"/>
    </filter>
    <mask id="mask-3" x="63.53" y="-8351.18" width="38.97" height="32766" maskUnits="userSpaceOnUse"/>
    <linearGradient id="linear-gradient-3" x1="1276.35" y1="-1212.19" x2="1276.35" y2="-1251.17" gradientTransform="translate(1314.69 -1245.86) rotate(90) scale(1 -1)" xlink:href="#linear-gradient"/>
    <mask id="mask-2" x="63.53" y=".05" width="38.97" height="60.9" maskUnits="userSpaceOnUse">
      <g class="cls-25">
        <g class="cls-13">
          <path class="cls-1" d="m102.5.05c-.06,19.82-.12,39.63-.18,59.45-12.93.45-25.86.94-38.79,1.45.05-20.3.09-40.6.14-60.89,12.95,0,25.89,0,38.84,0Z"/>
        </g>
      </g>
    </mask>
    <linearGradient id="linear-gradient-4" x1="1276.35" y1="-1216.15" x2="1276.35" y2="-1255.12" gradientTransform="translate(1314.69 -1245.86) rotate(90) scale(1 -1)" gradientUnits="userSpaceOnUse">
      <stop offset=".02" stop-color="#5865f2" stop-opacity="0"/>
      <stop offset=".2" stop-color="#4c59e9" stop-opacity=".32"/>
      <stop offset=".37" stop-color="#414fe2" stop-opacity=".61"/>
      <stop offset=".52" stop-color="#3a48dd" stop-opacity=".82"/>
      <stop offset=".64" stop-color="#3543da" stop-opacity=".95"/>
      <stop offset=".7" stop-color="#3442d9"/>
    </linearGradient>
    <filter id="luminosity-noclip-5" x="0" y="234.52" width="126.52" height="83.85" color-interpolation-filters="sRGB" filterUnits="userSpaceOnUse">
      <feFlood flood-color="#fff" result="bg"/>
      <feBlend in="SourceGraphic" in2="bg"/>
    </filter>
    <filter id="luminosity-noclip-6" x="0" y="-8351.18" width="126.52" height="32766" color-interpolation-filters="sRGB" filterUnits="userSpaceOnUse">
      <feFlood flood-color="#fff" result="bg"/>
      <feBlend in="SourceGraphic" in2="bg"/>
    </filter>
    <mask id="mask-5" x="0" y="-8351.18" width="126.52" height="32766" maskUnits="userSpaceOnUse"/>
    <linearGradient id="linear-gradient-5" x1="1514.28" y1="1612.56" x2="1514.28" y2="1486.04" gradientTransform="translate(1612.56 1790.73) rotate(-90) scale(1 -1)" xlink:href="#linear-gradient"/>
    <mask id="mask-4" x="0" y="234.52" width="126.52" height="83.85" maskUnits="userSpaceOnUse">
      <g class="cls-10">
        <g class="cls-16">
          <path class="cls-5" d="m0,318.37c0-21.22,0-42.44,0-63.66,41.97-8.04,84.17-14.76,126.52-20.18-.07,19.54-.13,39.08-.2,58.62C83.99,299.91,41.85,308.32,0,318.37Z"/>
        </g>
      </g>
    </mask>
    <linearGradient id="linear-gradient-6" x1="1514.28" y1="1612.56" x2="1514.28" y2="1486.04" gradientTransform="translate(1612.56 1790.73) rotate(-90) scale(1 -1)" gradientUnits="userSpaceOnUse">
      <stop offset=".53" stop-color="#5865f2" stop-opacity="0"/>
      <stop offset=".58" stop-color="#5663f1" stop-opacity=".04"/>
      <stop offset=".65" stop-color="#525fee" stop-opacity=".14"/>
      <stop offset=".74" stop-color="#4c59ea" stop-opacity=".32"/>
      <stop offset=".84" stop-color="#4351e4" stop-opacity=".56"/>
      <stop offset=".95" stop-color="#3846dc" stop-opacity=".86"/>
      <stop offset="1" stop-color="#3442d9"/>
    </linearGradient>
    <filter id="luminosity-noclip-7" x="0" y="114.96" width="63.4" height="139.74" color-interpolation-filters="sRGB" filterUnits="userSpaceOnUse">
      <feFlood flood-color="#fff" result="bg"/>
      <feBlend in="SourceGraphic" in2="bg"/>
    </filter>
    <filter id="luminosity-noclip-8" x="0" y="-8351.18" width="63.4" height="32766" color-interpolation-filters="sRGB" filterUnits="userSpaceOnUse">
      <feFlood flood-color="#fff" result="bg"/>
      <feBlend in="SourceGraphic" in2="bg"/>
    </filter>
    <mask id="mask-7" x="0" y="-8351.18" width="63.4" height="32766" maskUnits="userSpaceOnUse"/>
    <linearGradient id="linear-gradient-7" x1="409.16" y1="80.45" x2="409.16" y2="-59.29" gradientTransform="translate(-377.46 195.41) scale(1 -1)" xlink:href="#linear-gradient"/>
    <mask id="mask-6" x="0" y="114.96" width="63.4" height="139.74" maskUnits="userSpaceOnUse">
      <g class="cls-9">
        <g class="cls-24">
          <path class="cls-8" d="m0,120.18c21.11-1.9,42.25-3.64,63.4-5.23-.1,42.89-.19,85.78-.29,128.67C42.02,246.99,20.98,250.68,0,254.7V120.18Z"/>
        </g>
      </g>
    </mask>
    <linearGradient id="linear-gradient-8" x1="409.16" y1="80.45" x2="409.16" y2="-59.29" gradientTransform="translate(-377.46 195.41) scale(1 -1)" gradientUnits="userSpaceOnUse">
      <stop offset=".65" stop-color="#5865f2" stop-opacity="0"/>
      <stop offset=".71" stop-color="#5360ee" stop-opacity=".14"/>
      <stop offset=".83" stop-color="#4654e5" stop-opacity=".48"/>
      <stop offset="1" stop-color="#3442d9"/>
    </linearGradient>
    <linearGradient id="linear-gradient-9" x1="654.19" y1="38.3" x2="715.24" y2="38.3" gradientUnits="userSpaceOnUse">
      <stop offset=".01" stop-color="#3442d9"/>
      <stop offset=".06" stop-color="#4351e3"/>
      <stop offset=".13" stop-color="#4f5ceb"/>
      <stop offset=".23" stop-color="#5663f0"/>
      <stop offset=".5" stop-color="#5865f2"/>
      <stop offset=".78" stop-color="#5663f0"/>
      <stop offset=".88" stop-color="#4f5ceb"/>
      <stop offset=".95" stop-color="#4351e3"/>
      <stop offset="1" stop-color="#3442d9"/>
    </linearGradient>
    <linearGradient id="linear-gradient-10" x1="654.8" y1="219.49" x2="715.66" y2="219.49" xlink:href="#linear-gradient-9"/>
    <linearGradient id="linear-gradient-11" x1="397.89" y1="70.79" x2="498.76" y2="70.79" gradientUnits="userSpaceOnUse">
      <stop offset=".5" stop-color="#5865f2"/>
      <stop offset=".77" stop-color="#5663f0"/>
      <stop offset=".87" stop-color="#4f5ceb"/>
      <stop offset=".94" stop-color="#4351e3"/>
      <stop offset=".99" stop-color="#3442d9"/>
    </linearGradient>
    <linearGradient id="linear-gradient-12" x1="370.49" y1="70.75" x2="465.27" y2="70.75" gradientUnits="userSpaceOnUse">
      <stop offset=".04" stop-color="#3442d9"/>
      <stop offset=".13" stop-color="#3e4bdf" stop-opacity=".72"/>
      <stop offset=".22" stop-color="#4754e6" stop-opacity=".47"/>
      <stop offset=".31" stop-color="#4e5beb" stop-opacity=".26"/>
      <stop offset=".38" stop-color="#5360ef" stop-opacity=".12"/>
      <stop offset=".45" stop-color="#5663f1" stop-opacity=".03"/>
      <stop offset=".49" stop-color="#5865f2" stop-opacity="0"/>
    </linearGradient>
    <linearGradient id="linear-gradient-13" x1="634.28" y1="-560.76" x2="657.01" y2="-561.3" gradientTransform="translate(197.62 867.54) rotate(-33.66) scale(1 .87)" gradientUnits="userSpaceOnUse">
      <stop offset=".04" stop-color="#3442d9"/>
      <stop offset=".21" stop-color="#3e4bdf" stop-opacity=".72"/>
      <stop offset=".39" stop-color="#4754e6" stop-opacity=".47"/>
      <stop offset=".55" stop-color="#4e5beb" stop-opacity=".26"/>
      <stop offset=".69" stop-color="#5360ef" stop-opacity=".12"/>
      <stop offset=".82" stop-color="#5663f1" stop-opacity=".03"/>
      <stop offset=".9" stop-color="#5865f2" stop-opacity="0"/>
    </linearGradient>
  </defs>
  <g class="cls-12">
    <g id="Layer_2" data-name="Layer 2">
      <g id="Layer_1-2" data-name="Layer 1">
        <g>
          <g>
            <path class="cls-17" d="m127.13,58.66c-.03,9.77-.07,19.54-.1,29.31,21.21-1.02,42.42-1.91,63.66-2.68.03-9.47.07-18.94.1-28.42-21.23.51-42.45,1.11-63.66,1.79Z"/>
            <g class="cls-23">
              <path class="cls-4" d="m127.03,87.97c21.21-1.02,42.42-1.91,63.66-2.68.03-9.47.07-18.94.1-28.42-21.23.51-42.45,1.11-63.66,1.79-.03,9.77-.07,19.54-.1,29.31Z"/>
            </g>
            <path class="cls-17" d="m63.66.05c-.05,20.3-.09,40.6-.14,60.89-.14,60.9-.27,121.79-.41,182.69C42.02,246.99,20.98,250.68,0,254.7V63.71C21.16,41.49,42.4,20.35,63.66.05Z"/>
            <path class="cls-17" d="m127.33.05c21.15,19.54,42.3,38.4,63.46,56.83-21.23.51-42.45,1.11-63.66,1.79-21.21.68-42.41,1.44-63.6,2.28.05-20.3.09-40.6.14-60.89,21.22,0,42.44,0,63.66,0Z"/>
            <path class="cls-17" d="m62.98,304.52C41.97,288.43,20.98,271.91,0,254.7c20.98-4.02,42.02-7.71,63.12-11.07,21.09-3.36,42.23-6.4,63.41-9.11-.07,19.54-.13,39.08-.2,58.62-21.17,3.39-42.29,7.18-63.34,11.38Z"/>
            <path class="cls-17" d="m126.32,293.14c21.23-22.93,42.53-44.76,63.84-65.76.03-9.47.07-18.94.1-28.42-21.24,1.8-42.46,3.88-63.65,6.25-.1,29.31-.2,58.62-.3,87.93Z"/>
            <g class="cls-11">
              <path class="cls-7" d="m102.5.05c-.06,19.82-.12,39.63-.18,59.45-12.93.45-25.86.94-38.79,1.45.05-20.3.09-40.6.14-60.89,12.95,0,25.89,0,38.84,0Z"/>
            </g>
            <g class="cls-18">
              <path class="cls-6" d="m0,318.37c0-21.22,0-42.44,0-63.66,41.97-8.04,84.17-14.76,126.52-20.18-.07,19.54-.13,39.08-.2,58.62C83.99,299.91,41.85,308.32,0,318.37Z"/>
            </g>
            <g class="cls-19">
              <path class="cls-2" d="m0,120.18c21.11-1.9,42.25-3.64,63.4-5.23-.1,42.89-.19,85.78-.29,128.67C42.02,246.99,20.98,250.68,0,254.7V120.18Z"/>
            </g>
          </g>
          <path class="cls-17" d="m279.41,275.84c-21.33,1.42-42.65,3.25-63.93,5.49.33-93.76.65-187.52.98-281.29,21.22,0,42.44,0,63.66,0-.24,91.93-.47,183.87-.71,275.8Z"/>
          <g>
            <path class="cls-17" d="m655.2,293.22c-21.92-3.51-43.9-6.59-65.92-9.22-.26-70.83-.51-141.67-.77-212.5,21.9-23.15,43.79-46.86,65.68-71.45.33,97.73.67,195.45,1,293.18Z"/>
            <path class="cls-17" d="m781,318.37c-21.67-5.2-43.42-9.97-65.24-14.29-.23-101.34-.47-202.69-.7-304.03,22.04,25.5,44.04,52.09,65.94,80.1,0,79.41,0,158.81,0,238.22Z"/>
            <path class="cls-20" d="m715.24,76.55c-20.25-1-40.52-1.92-60.79-2.73-.08-24.59-.17-49.18-.25-73.77,20.29,0,40.58,0,60.87,0,.06,25.5.12,51,.18,76.5Z"/>
            <path class="cls-15" d="m715.66,261.03c-20.16-3.43-40.36-6.53-60.61-9.32-.08-24.59-.17-49.18-.25-73.77,20.26,1.97,40.49,4.16,60.69,6.59.06,25.5.12,51,.18,76.5Z"/>
          </g>
          <g>
            <path class="cls-17" d="m369.51,272.28c-22.13.28-44.26.99-66.37,2.15.15-73.17.31-146.35.46-219.52C325.65,36.39,347.67,18.19,369.66.04c-.05,90.75-.1,181.49-.15,272.24Z"/>
            <path class="cls-17" d="m499.16,275.68c22.1,1.44,44.17,3.32,66.21,5.63-.26-75.01-.52-150.02-.78-225.03-22.06-19.21-44.11-37.87-66.13-56.24.23,91.88.47,183.76.7,275.64Z"/>
            <path class="cls-17" d="m479.14,141.56c-27.49-.76-55-1.16-82.51-1.21-9.02-10.84-18.02-21.64-27.02-32.43.02-35.96.04-71.91.06-107.87,36.36,46.79,72.87,93.34,109.48,141.52Z"/>
            <path class="cls-14" d="m397.89,140.35c26.91.06,53.82.46,80.72,1.2,6.72-8.08,13.44-16.17,20.15-24.29-.1-39.07-.2-78.14-.3-117.21-33.41,47.37-66.93,93.61-100.57,140.3Z"/>
            <path class="cls-26" d="m478.72,141.5c-27.49-.75-55-1.15-82.51-1.2-9.01-10.84-18.02-21.64-27.02-32.43.02-35.96.04-71.92.06-107.87,36.36,46.79,72.87,93.34,109.48,141.5Z"/>
          </g>
          <path class="cls-27" d="m495.6,121.08c-5.51,6.82-11.03,13.63-16.55,20.43-14.09-18.68-28.16-37.13-42.22-55.43,5.1-6.86,10.19-13.73,15.28-20.61,14.48,18.35,28.98,36.84,43.49,55.61Z"/>
        </g>
      </g>
    </g>
  </g>
</svg>