<?xml version="1.0" encoding="UTF-8"?>
<svg id="Layer_2" data-name="Layer 2" xmlns="http://www.w3.org/2000/svg" viewBox="0 0 781 318.37">
  <defs>
    <style>
      .cls-1 {
        fill: #5865f2;
      }
    </style>
  </defs>
  <g id="Layer_1-2" data-name="Layer 1">
    <g>
      <g>
        <path class="cls-1" d="m127.13,58.66c-.03,9.77-.07,19.54-.1,29.31,21.21-1.02,42.42-1.91,63.66-2.68.03-9.47.07-18.94.1-28.42-21.23.51-42.45,1.11-63.66,1.79Z"/>
        <path class="cls-1" d="m63.66.05c-.05,20.3-.09,40.6-.14,60.89-.14,60.9-.27,121.79-.41,182.69C42.02,246.99,20.98,250.68,0,254.7V63.71C21.16,41.49,42.4,20.35,63.66.05Z"/>
        <path class="cls-1" d="m127.33.05c21.15,19.54,42.3,38.4,63.46,56.83-21.23.51-42.45,1.11-63.66,1.79-21.21.68-42.41,1.44-63.6,2.28.05-20.3.09-40.6.14-60.89,21.22,0,42.44,0,63.66,0Z"/>
        <path class="cls-1" d="m62.98,304.52C41.97,288.43,20.98,271.9,0,254.7c20.98-4.02,42.02-7.71,63.12-11.07s42.23-6.4,63.41-9.11c-.07,19.54-.13,39.08-.2,58.62-21.17,3.39-42.29,7.18-63.34,11.38Z"/>
        <path class="cls-1" d="m126.32,293.14c21.23-22.92,42.53-44.76,63.84-65.76.03-9.47.07-18.95.1-28.42-21.24,1.8-42.46,3.88-63.65,6.25-.1,29.31-.2,58.62-.3,87.93Z"/>
      </g>
      <path class="cls-1" d="m279.41,275.84c-21.33,1.42-42.65,3.25-63.93,5.49.33-93.76.65-187.52.98-281.29,21.22,0,42.44,0,63.66,0-.24,91.93-.47,183.87-.71,275.8Z"/>
      <g>
        <path class="cls-1" d="m655.2,293.22c-21.92-3.51-43.9-6.59-65.92-9.22-.26-70.83-.51-141.67-.77-212.5,21.9-23.15,43.79-46.86,65.68-71.45.33,97.73.67,195.45,1,293.18Z"/>
        <path class="cls-1" d="m781,318.37c-21.67-5.2-43.42-9.97-65.24-14.29-.23-101.34-.47-202.69-.7-304.03,22.04,25.5,44.04,52.09,65.94,80.1,0,79.41,0,158.81,0,238.22Z"/>
        <path class="cls-1" d="m715.24,76.55c-20.25-1-40.52-1.92-60.79-2.73-.08-24.59-.17-49.18-.25-73.77,20.29,0,40.58,0,60.87,0,.06,25.5.12,51,.18,76.5Z"/>
        <path class="cls-1" d="m715.66,261.03c-20.16-3.43-40.36-6.53-60.61-9.32-.08-24.59-.17-49.18-.25-73.77,20.26,1.97,40.49,4.16,60.69,6.59.06,25.5.12,51,.18,76.5Z"/>
      </g>
      <g>
        <path class="cls-1" d="m369.51,272.28c-22.13.28-44.26.99-66.37,2.15.15-73.17.31-146.35.46-219.52C325.65,36.39,347.67,18.19,369.66.04c-.05,90.75-.1,181.49-.15,272.24Z"/>
        <path class="cls-1" d="m499.16,275.68c22.1,1.44,44.17,3.32,66.21,5.63-.26-75.01-.52-150.02-.78-225.03-22.06-19.21-44.11-37.87-66.13-56.24.23,91.88.47,183.76.7,275.64Z"/>
        <path class="cls-1" d="m479.14,141.56c-27.49-.76-55-1.16-82.51-1.21-9.02-10.84-18.02-21.64-27.02-32.43.02-35.96.04-71.91.06-107.87,36.36,46.79,72.87,93.34,109.48,141.52Z"/>
        <path class="cls-1" d="m397.89,140.35c26.91.06,53.82.46,80.72,1.2,6.72-8.08,13.44-16.17,20.15-24.29-.1-39.07-.2-78.14-.3-117.21-33.41,47.37-66.93,93.61-100.57,140.3Z"/>
        <path class="cls-1" d="m478.72,141.5c-27.49-.75-55-1.15-82.51-1.2-9.01-10.84-18.02-21.64-27.02-32.43.02-35.96.04-71.92.06-107.87,36.36,46.79,72.87,93.34,109.48,141.5Z"/>
      </g>
      <path class="cls-1" d="m495.6,121.08c-5.51,6.82-11.03,13.63-16.55,20.43-14.09-18.68-28.16-37.13-42.22-55.43,5.1-6.86,10.19-13.73,15.28-20.61,14.48,18.35,28.98,36.84,43.49,55.61Z"/>
    </g>
  </g>
</svg>